<svg width="375" height="143" viewBox="0 0 375 143" fill="none" xmlns="http://www.w3.org/2000/svg">
<path d="M75.2908 135.67L2.92727 113.994C-10.5521 109.956 -8.94905 98.5824 -6.87078 92.5047L5.02991 52.7757C-2.01345 37.0593 3.95452 25.395 9.34243 17.7317C14.0942 10.9731 25.7939 4.10515 41.4017 8.78042L100.995 26.6315C113.765 30.4567 121.737 38.2563 122.144 51.5211C122.504 63.2254 119.104 74.5765 104.352 82.5275L93.9392 117.29C89.3359 135.239 79.5474 136.946 75.2908 135.67Z" fill="#F2E1B6" fill-opacity="0.5"/>
<path d="M-4.50526 93.3136L-4.48971 93.2681L-4.47592 93.2221L7.42478 53.4931L7.69167 52.6021L7.31129 51.7533C0.797439 37.2184 6.2123 26.5304 11.3875 19.1695C15.5524 13.2458 26.1596 6.82445 40.6843 11.1753L100.278 29.0263C106.37 30.8511 111.097 33.5598 114.339 37.1994C117.548 40.8014 119.458 45.4874 119.646 51.5979C119.817 57.1939 119.083 62.5085 116.679 67.3132C114.291 72.0874 110.152 76.5613 103.166 80.3268L102.255 80.8181L101.957 81.8101L91.5444 116.573L91.53 116.621L91.5176 116.669C89.3123 125.268 85.9676 129.581 83.0426 131.647C80.1125 133.717 77.3971 133.692 76.0082 133.276L3.64464 111.599C-2.319 109.813 -4.58633 106.593 -5.38017 103.41C-6.23377 99.9864 -5.4819 96.1697 -4.50526 93.3136Z" stroke="#B88352" stroke-opacity="0.5" stroke-width="5"/>
<path d="M364.792 114.921L306.848 132.879C296.055 136.224 292.039 127.955 290.708 122.991L280.884 91.2922C269.162 84.0058 267.928 73.5932 268.095 66.0964C268.242 59.4847 272.974 49.6943 285.471 45.821L333.19 31.0322C343.415 27.8632 352.218 29.4781 358.419 38.1033C363.891 45.7137 366.698 54.7705 360.415 66.6442L369.011 94.3806C373.965 108.356 368.201 113.865 364.792 114.921Z" fill="#F2E1B6" fill-opacity="0.5"/>
<path d="M293.123 122.344L293.111 122.297L293.096 122.251L283.272 90.5521L282.996 89.6613L282.204 89.169C271.584 82.5678 270.435 73.2773 270.594 66.1521C270.719 60.5646 274.788 51.7492 286.211 48.209L333.93 33.4202C338.752 31.9259 343.019 31.6291 346.695 32.5673C350.322 33.4929 353.595 35.6756 356.389 39.5627C358.975 43.1593 360.814 46.9375 361.345 51.0918C361.872 55.2122 361.14 59.9292 358.206 65.475L357.72 66.3926L358.027 67.3843L366.623 95.1207L366.638 95.1686L366.655 95.2158C369.002 101.836 368.675 106.066 367.703 108.601C366.729 111.143 365.023 112.232 364.052 112.533L306.108 130.491C301.481 131.925 298.714 130.825 296.903 129.194C294.91 127.398 293.738 124.638 293.123 122.344Z" stroke="#B88352" stroke-opacity="0.5" stroke-width="5"/>
</svg>
